<svg xmlns="http://www.w3.org/2000/svg" viewBox="0 0 96 96">
  <rect width="96" height="96" fill="#fff"/>
  <g fill="#141414">
    <!-- simplified polo player: horse body, legs, rider with raised mallet -->
    <ellipse cx="48" cy="42" rx="16" ry="8"/>
    <rect x="34" y="44" width="3.5" height="14" rx="1.6"/>
    <rect x="42" y="46" width="3.5" height="13" rx="1.6"/>
    <rect x="52" y="46" width="3.5" height="13" rx="1.6"/>
    <rect x="59" y="44" width="3.5" height="14" rx="1.6"/>
    <path d="M62 38c4-1 7-4 8-8l3 1c-1 5-4 8-8 10z"/>
    <circle cx="46" cy="27" r="4.5"/>
    <path d="M42 31l8 1 2 6-12-1z"/>
    <rect x="50" y="14" width="2.5" height="16" rx="1.2" transform="rotate(18 51 22)"/>
  </g>
  <text x="48" y="80" text-anchor="middle" font-family="Georgia, 'Times New Roman', serif" font-size="15" font-weight="700" letter-spacing="1.5" fill="#141414">POLO</text>
</svg>
